<svg width="154" height="32" viewBox="0 0 154 32" fill="none" xmlns="http://www.w3.org/2000/svg">
<path d="M7.34365 8C7.34365 12.4183 4.05579 16 0 16C4.05579 16 7.34365 19.5817 7.34365 24C7.34365 28.4183 4.05579 32 0 32H5.87492C9.93071 32 13.2186 28.4183 13.2186 24C13.2186 19.5817 9.93071 16 5.87492 16C9.93071 16 13.2186 12.4183 13.2186 8C13.2186 3.58172 9.93071 0 5.87492 0H0C4.05579 0 7.34365 3.58172 7.34365 8Z" fill="#377679"/>
<path d="M17.452 8C17.452 12.4183 14.1641 16 10.1083 16C14.1641 16 17.452 19.5817 17.452 24C17.452 28.4183 14.1641 32 10.1083 32H15.9832C20.039 32 23.3269 28.4183 23.3269 24C23.3269 19.5817 20.039 16 15.9832 16C20.039 16 23.3269 12.4183 23.3269 8C23.3269 3.58172 20.039 0 15.9832 0H10.1083C14.1641 0 17.452 3.58172 17.452 8Z" fill="#D18E44"/>
<path d="M27.5603 8C27.5603 12.4183 24.2724 16 20.2166 16C24.2724 16 27.5603 19.5817 27.5603 24C27.5603 28.4183 24.2724 32 20.2166 32H26.0916C30.1473 32 33.4352 28.4183 33.4352 24C33.4352 19.5817 30.1473 16 26.0916 16C30.1473 16 33.4352 12.4183 33.4352 8C33.4352 3.58172 30.1473 0 26.0916 0H20.2166C24.2724 0 27.5603 3.58172 27.5603 8Z" fill="#377679"/>
<path d="M42.766 28.3774V5.5945H55.5462C58.5157 5.5945 60.7657 6.11095 62.2961 7.14387C63.8494 8.15332 64.626 9.66749 64.626 11.6864C64.626 12.9775 64.3177 13.9987 63.7009 14.7499C63.0842 15.4777 62.2048 16.0176 61.0626 16.3697C59.9434 16.7219 58.6185 16.9449 57.0881 17.0388L57.2251 16.7923C58.3444 16.8158 59.3952 16.8979 60.3774 17.0388C61.3824 17.1796 62.2619 17.4379 63.0157 17.8135C63.7695 18.1891 64.3634 18.7173 64.7974 19.3981C65.2314 20.0554 65.4484 20.924 65.4484 22.0038C65.4484 23.4124 65.0829 24.5861 64.3519 25.5252C63.621 26.4407 62.6045 27.1332 61.3025 27.6027C60.0005 28.0723 58.4929 28.3305 56.7797 28.3774H42.766ZM47.323 24.504H56.3C57.7391 24.504 58.8469 24.2692 59.6236 23.7997C60.4002 23.3067 60.7885 22.532 60.7885 21.4756C60.7885 20.701 60.5601 20.1375 60.1033 19.7854C59.6464 19.4333 59.0411 19.222 58.2873 19.1516C57.5335 19.0577 56.7226 19.0107 55.8546 19.0107H47.323V24.504ZM47.323 15.2429H55.3749C56.814 15.2429 57.9218 15.0316 58.6985 14.6091C59.4751 14.163 59.8634 13.4118 59.8634 12.3554C59.8634 11.299 59.4751 10.5596 58.6985 10.137C57.9218 9.69096 56.8939 9.46795 55.6148 9.46795H47.323V15.2429Z" fill="#377679"/>
<path d="M78.9576 28.8C76.8104 28.8 74.9145 28.4479 73.2698 27.7436C71.648 27.0393 70.3803 26.0182 69.4666 24.68C68.5529 23.3185 68.096 21.6517 68.096 19.6798C68.096 17.7078 68.5529 16.0411 69.4666 14.6795C70.3803 13.2944 71.648 12.2498 73.2698 11.5455C74.9145 10.8413 76.8104 10.4891 78.9576 10.4891C81.1047 10.4891 82.9778 10.8413 84.5768 11.5455C86.1986 12.2498 87.4663 13.2944 88.38 14.6795C89.2937 16.0411 89.7505 17.7078 89.7505 19.6798C89.7505 21.6517 89.2937 23.3185 88.38 24.68C87.4663 26.0182 86.1986 27.0393 84.5768 27.7436C82.9778 28.4479 81.1047 28.8 78.9576 28.8ZM78.9576 25.2787C80.1454 25.2787 81.2075 25.0674 82.1441 24.6448C83.1034 24.1988 83.8572 23.565 84.4054 22.7433C84.9537 21.8982 85.2278 20.877 85.2278 19.6798C85.2278 18.4825 84.9537 17.4613 84.4054 16.6162C83.8572 15.7476 83.1149 15.0903 82.1783 14.6443C81.2418 14.1983 80.1682 13.9752 78.9576 13.9752C77.7698 13.9752 76.6962 14.1983 75.7368 14.6443C74.7774 15.0903 74.0122 15.7359 73.4411 16.581C72.8929 17.4261 72.6188 18.4591 72.6188 19.6798C72.6188 20.877 72.8929 21.8982 73.4411 22.7433C73.9893 23.565 74.7431 24.1988 75.7025 24.6448C76.6619 25.0674 77.7469 25.2787 78.9576 25.2787Z" fill="#377679"/>
<path d="M101.335 28.7648C99.6219 28.7648 98.0686 28.3892 96.6752 27.638C95.3047 26.8633 94.2197 25.7951 93.4202 24.4336C92.6207 23.0485 92.221 21.4522 92.221 19.6446C92.221 17.79 92.6093 16.1819 93.386 14.8204C94.1854 13.4588 95.2704 12.4024 96.641 11.6512C98.0115 10.8765 99.5762 10.4891 101.335 10.4891C102.866 10.4891 104.168 10.7239 105.241 11.1934C106.315 11.6629 107.183 12.3202 107.845 13.1653C108.508 13.987 108.987 14.9495 109.284 16.0528C109.604 17.1562 109.764 18.3534 109.764 19.6446C109.764 20.6775 109.604 21.7339 109.284 22.8137C108.964 23.8701 108.473 24.8561 107.811 25.7717C107.148 26.6637 106.28 27.3915 105.207 27.9549C104.133 28.4948 102.843 28.7648 101.335 28.7648ZM102.774 25.2435C104.122 25.2435 105.287 25.0087 106.269 24.5392C107.251 24.0697 108.005 23.4124 108.53 22.5673C109.056 21.7221 109.318 20.7479 109.318 19.6446C109.318 18.4473 109.044 17.4379 108.496 16.6162C107.971 15.7711 107.217 15.1255 106.235 14.6795C105.275 14.2335 104.122 14.0104 102.774 14.0104C100.878 14.0104 99.4049 14.5269 98.3542 15.5598C97.3034 16.5928 96.778 17.9543 96.778 19.6446C96.778 20.7714 97.0293 21.7574 97.5318 22.6025C98.0344 23.4241 98.7311 24.0697 99.6219 24.5392C100.536 25.0087 101.586 25.2435 102.774 25.2435ZM109.318 3.83383H113.773V28.3774H109.627C109.558 27.8375 109.49 27.145 109.421 26.2999C109.353 25.4313 109.318 24.6214 109.318 23.8701V3.83383Z" fill="#377679"/>
<path d="M134.129 28.3774V18.7642C134.129 17.8017 133.969 17.0036 133.65 16.3697C133.33 15.7359 132.816 15.2546 132.108 14.926C131.422 14.5973 130.497 14.433 129.332 14.433C128.213 14.433 127.197 14.656 126.283 15.1021C125.369 15.5246 124.627 16.088 124.056 16.7923C123.485 17.4731 123.165 18.2008 123.096 18.9755L123.062 17.0388C123.176 16.2641 123.439 15.4894 123.85 14.7147C124.261 13.94 124.81 13.2358 125.495 12.6019C126.18 11.9681 127.002 11.4634 127.962 11.0878C128.944 10.6887 130.04 10.4891 131.251 10.4891C132.302 10.4891 133.273 10.63 134.164 10.9117C135.054 11.1699 135.831 11.5807 136.493 12.1441C137.156 12.7076 137.67 13.4118 138.035 14.2569C138.401 15.0786 138.583 16.0528 138.583 17.1796V28.3774H134.129ZM118.882 28.3774V3.83383H123.336V28.3774H118.882Z" fill="#377679"/>
<path d="M147.737 3.2V7.2143H142.563V3.2H147.737ZM142.906 10.8765H147.36V28.3774H142.906V10.8765Z" fill="#377679"/>
</svg>
