<svg width="84" height="18" viewBox="0 0 84 18" fill="none" xmlns="http://www.w3.org/2000/svg">
<path d="M31.5 10C25.701 10 21 5.52286 21 9.17939e-07C21 5.52286 16.299 10 10.5 10C4.70101 10 1.08279e-07 5.52286 3.49691e-07 0L0 8C-2.41412e-07 13.5229 4.70101 18 10.5 18C16.299 18 21 13.5229 21 8C21 13.5229 25.701 18 31.5 18C37.299 18 42 13.5229 42 8V1.83588e-06C42 5.52286 37.299 10 31.5 10Z" fill="#377679"/>
<path d="M73.5 10C67.701 10 63 5.52286 63 9.17939e-07C63 5.52286 58.299 10 52.5 10C46.701 10 42 5.52286 42 1.83588e-06V8C42 13.5229 46.701 18 52.5 18C58.299 18 63 13.5229 63 8C63 13.5229 67.701 18 73.5 18C79.299 18 84 13.5229 84 8V1.83588e-06C84 5.52286 79.299 10 73.5 10Z" fill="#377679"/>
</svg>
